<?xml version="1.0" standalone="no"?>
<!DOCTYPE svg PUBLIC "-//W3C//DTD SVG 20010904//EN"
 "http://www.w3.org/TR/2001/REC-SVG-20010904/DTD/svg10.dtd">
<svg version="1.0" xmlns="http://www.w3.org/2000/svg"
 width="280.000000pt" height="279.000000pt" viewBox="0 0 280.000000 279.000000"
 preserveAspectRatio="xMidYMid meet">

<g transform="translate(0.000000,279.000000) scale(0.100000,-0.100000)"
fill="#000000" stroke="none">
<path d="M1991 2454 c-25 -32 -27 -73 -5 -100 15 -18 15 -18 5 3 -15 31 -14
65 5 91 15 21 20 22 195 22 235 0 219 16 219 -210 0 -161 -1 -170 -22 -190
-39 -36 -89 -24 -143 35 l-30 32 -375 -383 c-206 -211 -379 -384 -384 -384 -5
0 -62 52 -127 115 -124 121 -146 133 -187 98 -48 -42 -42 -52 104 -208 150
-159 192 -192 222 -176 11 6 181 175 379 376 l360 365 62 0 c53 0 66 -4 88
-26 24 -24 25 -31 20 -87 -4 -47 -3 -56 4 -37 21 51 15 97 -16 130 -34 35 -77
46 -131 31 -42 -11 -21 9 -564 -543 -153 -156 -199 -198 -220 -198 -20 0 -60
34 -178 153 -84 85 -152 157 -152 161 0 19 24 48 47 57 20 7 32 5 58 -11 33
-21 72 -68 67 -83 -1 -5 1 -6 6 -3 5 3 26 -12 46 -33 21 -21 34 -41 29 -43 -4
-3 -3 -4 4 -2 6 1 19 -6 29 -18 43 -47 45 -46 176 89 359 370 621 631 633 629
7 -1 29 -16 49 -34 41 -36 87 -42 122 -17 39 27 46 65 43 224 -4 142 -5 151
-28 175 l-24 26 -183 0 -183 0 -20 -26z"/>
<path d="M2013 2314 c9 -11 14 -24 10 -29 -5 -4 -3 -5 3 -2 7 4 17 1 23 -6 8
-11 -22 -47 -137 -165 -81 -82 -157 -155 -169 -161 -15 -7 -173 -11 -486 -11
l-463 0 -12 38 -11 37 6 -35 c3 -19 7 -38 10 -42 2 -5 219 -8 480 -8 l477 0
165 165 166 165 -40 37 c-21 21 -31 29 -22 17z"/>
<path d="M280 2151 c-38 -38 -41 -88 -6 -128 24 -28 25 -28 172 -33 l147 -5
13 -40 c15 -49 18 -35 3 18 l-10 37 -134 0 c-77 0 -144 5 -158 11 -47 21 -61
89 -28 130 19 23 24 24 200 27 195 4 237 -5 259 -51 7 -15 11 -17 11 -6 1 8
-11 26 -25 40 -25 23 -30 24 -220 27 l-194 3 -30 -30z"/>
<path d="M751 2074 c0 -11 3 -14 6 -6 3 7 2 16 -1 19 -3 4 -6 -2 -5 -13z"/>
<path d="M761 2034 c0 -11 3 -14 6 -6 3 7 2 16 -1 19 -3 4 -6 -2 -5 -13z"/>
<path d="M560 1966 c0 -2 7 -6 15 -10 8 -3 15 -1 15 4 0 6 -7 10 -15 10 -8 0
-15 -2 -15 -4z"/>
<path d="M621 1884 c0 -11 3 -14 6 -6 3 7 2 16 -1 19 -3 4 -6 -2 -5 -13z"/>
<path d="M628 1833 c-3 -19 -1 -30 5 -26 6 4 8 -3 5 -15 -3 -12 -2 -22 2 -24
4 -2 24 -59 44 -128 20 -69 34 -109 31 -90 -3 19 -22 98 -44 175 -30 111 -39
133 -43 108z"/>
<path d="M2306 1565 c-21 -69 -36 -128 -34 -131 5 -4 68 193 68 213 0 6 7 13
15 17 8 3 15 11 14 18 0 10 -2 10 -6 -1 -4 -10 -7 -10 -13 -2 -4 7 -24 -45
-44 -114z"/>
<path d="M717 1491 c-4 -17 -3 -21 5 -13 5 5 8 16 6 23 -3 8 -7 3 -11 -10z"/>
<path d="M730 1462 c0 -6 14 -63 30 -128 17 -64 28 -126 25 -138 -3 -12 -2
-14 2 -6 4 9 13 -7 24 -45 35 -121 18 -28 -27 144 -43 165 -54 200 -54 173z"/>
<path d="M2261 1404 c0 -11 3 -14 6 -6 3 7 2 16 -1 19 -3 4 -6 -2 -5 -13z"/>
<path d="M2201 1203 c-19 -65 -45 -133 -58 -151 -47 -64 -29 -62 -603 -62
l-522 0 7 -32 c9 -41 34 -102 39 -97 3 2 -4 29 -14 59 l-19 55 528 5 c400 4
532 8 543 17 8 7 18 10 21 6 4 -3 7 0 7 8 0 12 2 11 11 -1 9 -12 10 -12 5 3
-3 11 2 30 13 45 21 31 84 226 79 248 -2 8 -18 -38 -37 -103z"/>
<path d="M843 997 c1 -25 5 -43 8 -41 10 6 21 -64 13 -78 -4 -6 -3 -8 3 -5 13
8 37 -69 27 -86 -4 -6 -4 -9 1 -5 4 4 19 -7 32 -23 51 -61 36 -59 576 -59 466
0 495 1 510 18 10 10 17 23 17 28 0 4 -7 -2 -16 -14 l-15 -22 -497 0 c-476 0
-498 1 -529 20 -42 25 -65 72 -98 200 -15 58 -29 107 -31 109 -2 2 -2 -17 -1
-42z"/>
<path d="M1303 853 c126 -2 328 -2 450 0 122 1 20 2 -228 2 -247 0 -347 -1
-222 -2z"/>
<path d="M2003 827 c12 -13 24 -22 26 -20 6 4 -30 43 -40 43 -5 0 2 -10 14
-23z"/>
<path d="M1015 595 c-16 -9 -34 -23 -38 -31 -5 -8 -11 -13 -15 -10 -4 2 -8 -7
-9 -21 l-1 -26 19 29 c41 63 129 82 190 41 42 -28 62 -69 62 -124 0 -133 -179
-181 -253 -67 -11 16 -20 24 -20 18 0 -19 40 -63 70 -79 34 -18 103 -20 132
-4 33 18 67 61 79 102 15 45 1 100 -33 137 -13 14 -22 27 -21 31 2 7 -6 8 -77
15 -39 3 -64 0 -85 -11z"/>
<path d="M1803 600 c1 -3 -13 -20 -31 -38 -37 -39 -49 -90 -35 -144 6 -20 7
-39 4 -41 -3 -2 0 -2 8 0 9 2 11 -2 7 -14 -4 -10 -4 -14 0 -11 3 4 23 -4 43
-17 43 -30 107 -33 154 -8 18 9 35 16 39 15 5 -1 7 1 6 6 -1 4 6 22 16 41 13
24 17 50 14 90 -3 53 -6 58 -48 94 -43 36 -47 38 -112 35 -37 -1 -66 -5 -65
-8z m154 -21 c89 -55 83 -198 -11 -243 -91 -43 -190 11 -202 111 -14 110 117
191 213 132z"/>
<path d="M943 460 c0 -25 2 -35 4 -22 2 12 2 32 0 45 -2 12 -4 2 -4 -23z"/>
<path d="M917 456 c-4 -10 -5 -21 -2 -24 9 -9 17 6 13 25 -3 17 -4 17 -11 -1z"/>
</g>
</svg>
